HIERARCHY
ROOT Hip
{
	OFFSET	0.0000	0.0000	0.0000
	CHANNELS 6 Xposition Yposition Zposition Xrotation Yrotation Zrotation
	JOINT LowerSpine
	{
		OFFSET	0.0000	10.2468	-5.5450
		CHANNELS 3 Xrotation Yrotation Zrotation
		JOINT MiddleSpine
		{
			OFFSET	0.0000	9.3510	0.4885
			CHANNELS 3 Xrotation Yrotation Zrotation
			JOINT Chest
			{
				OFFSET	0.0000	11.5708	-2.5755
				CHANNELS 3 Xrotation Yrotation Zrotation
				JOINT Neck
				{
					OFFSET	0.0000	26.0744	-0.5423
					CHANNELS 3 Xrotation Yrotation Zrotation
					JOINT Head
					{
						OFFSET	-0.0001	14.7245	4.0051
						CHANNELS 3 Xrotation Yrotation Zrotation
						End Site
						{
							OFFSET	0.0001	20.5738	0.6142
						}
					}
				}
				JOINT LClavicle
				{
					OFFSET	2.6325	25.1631	8.6210
					CHANNELS 3 Xrotation Yrotation Zrotation
					JOINT LShoulder
					{
						OFFSET	15.3790	3.6093	-5.8402
						CHANNELS 3 Xrotation Yrotation Zrotation
						JOINT LForearm
						{
							OFFSET	32.6679	-0.1158	-0.2831
							CHANNELS 3 Xrotation Yrotation Zrotation
							JOINT LHand
							{
								OFFSET	27.2520	0.0790	-0.1633
								CHANNELS 3 Xrotation Yrotation Zrotation
								JOINT LFinger1
								{
									OFFSET	10.5621	0.9237	2.9336
									CHANNELS 3 Xrotation Yrotation Zrotation
									JOINT LFinger11
									{
										OFFSET	3.9508	-0.9634	0.6961
										CHANNELS 3 Xrotation Yrotation Zrotation
										JOINT LFinger12
										{
											OFFSET	2.6971	-0.6578	0.4754
											CHANNELS 3 Xrotation Yrotation Zrotation
											End Site
											{
												OFFSET	1.9192	-0.5729	0.3113
											}
										}
									}
								}
								JOINT LFinger2
								{
									OFFSET	10.7197	1.0667	0.2554
									CHANNELS 3 Xrotation Yrotation Zrotation
									JOINT LFinger21
									{
										OFFSET	4.8849	0.0136	-0.0289
										CHANNELS 3 Xrotation Yrotation Zrotation
										JOINT LFinger22
										{
											OFFSET	2.7077	0.0083	-0.0165
											CHANNELS 3 Xrotation Yrotation Zrotation
											End Site
											{
												OFFSET	2.4320	-0.1717	0.0033
											}
										}
									}
								}
								JOINT LFinger3
								{
									OFFSET	10.1592	0.7119	-2.4035
									CHANNELS 3 Xrotation Yrotation Zrotation
									JOINT LFinger31
									{
										OFFSET	4.4325	-0.2244	-0.2775
										CHANNELS 3 Xrotation Yrotation Zrotation
										JOINT LFinger32
										{
											OFFSET	2.5259	-0.1271	-0.1586
											CHANNELS 3 Xrotation Yrotation Zrotation
											End Site
											{
												OFFSET	2.2333	-0.2746	-0.1056
											}
										}
									}
								}
								JOINT LFinger4
								{
									OFFSET	9.4273	-0.7164	-4.1508
									CHANNELS 3 Xrotation Yrotation Zrotation
									JOINT LFinger41
									{
										OFFSET	2.7264	-0.5686	-0.7526
										CHANNELS 3 Xrotation Yrotation Zrotation
										JOINT LFinger42
										{
											OFFSET	1.9994	-0.4164	-0.5523
											CHANNELS 3 Xrotation Yrotation Zrotation
											End Site
											{
												OFFSET	1.7745	-0.4876	-0.4071
											}
										}
									}
								}
								JOINT LFinger0
								{
									OFFSET	2.1850	-1.6538	1.6564
									CHANNELS 3 Xrotation Yrotation Zrotation
									JOINT LFinger01
									{
										OFFSET	4.0680	-1.3359	3.0670
										CHANNELS 3 Xrotation Yrotation Zrotation
										JOINT LFinger02
										{
											OFFSET	2.6787	-0.9585	1.9299
											CHANNELS 3 Xrotation Yrotation Zrotation
											End Site
											{
												OFFSET	1.9698	-0.6781	1.3488
											}
										}
									}
								}
							}
						}
					}
				}
				JOINT RClavicle
				{
					OFFSET	-2.6324	25.1631	8.6210
					CHANNELS 3 Xrotation Yrotation Zrotation
					JOINT RShoulder
					{
						OFFSET	-15.3817	3.6099	-5.8412
						CHANNELS 3 Xrotation Yrotation Zrotation
						JOINT RForearm
						{
							OFFSET	-32.6679	-0.1158	-0.2831
							CHANNELS 3 Xrotation Yrotation Zrotation
							JOINT RHand
							{
								OFFSET	-27.2520	0.0791	-0.1632
								CHANNELS 3 Xrotation Yrotation Zrotation
								JOINT RFinger1
								{
									OFFSET	-10.5622	0.9238	2.9336
									CHANNELS 3 Xrotation Yrotation Zrotation
									JOINT RFinger11
									{
										OFFSET	-3.9508	-0.9634	0.6961
										CHANNELS 3 Xrotation Yrotation Zrotation
										JOINT RFinger12
										{
											OFFSET	-2.6970	-0.6580	0.4754
											CHANNELS 3 Xrotation Yrotation Zrotation
											End Site
											{
												OFFSET	-1.9192	-0.5729	0.3113
											}
										}
									}
								}
								JOINT RFinger2
								{
									OFFSET	-10.7197	1.0668	0.2554
									CHANNELS 3 Xrotation Yrotation Zrotation
									JOINT RFinger21
									{
										OFFSET	-4.8849	0.0136	-0.0289
										CHANNELS 3 Xrotation Yrotation Zrotation
										JOINT RFinger22
										{
											OFFSET	-2.7077	0.0083	-0.0166
											CHANNELS 3 Xrotation Yrotation Zrotation
											End Site
											{
												OFFSET	-2.4320	-0.1717	0.0033
											}
										}
									}
								}
								JOINT RFinger3
								{
									OFFSET	-10.1592	0.7119	-2.4035
									CHANNELS 3 Xrotation Yrotation Zrotation
									JOINT RFinger31
									{
										OFFSET	-4.4325	-0.2244	-0.2775
										CHANNELS 3 Xrotation Yrotation Zrotation
										JOINT RFinger32
										{
											OFFSET	-2.5259	-0.1271	-0.1587
											CHANNELS 3 Xrotation Yrotation Zrotation
											End Site
											{
												OFFSET	-2.2333	-0.2746	-0.1056
											}
										}
									}
								}
								JOINT RFinger4
								{
									OFFSET	-9.4273	-0.7164	-4.1508
									CHANNELS 3 Xrotation Yrotation Zrotation
									JOINT RFinger41
									{
										OFFSET	-2.7264	-0.5686	-0.7526
										CHANNELS 3 Xrotation Yrotation Zrotation
										JOINT RFinger42
										{
											OFFSET	-1.9993	-0.4162	-0.5523
											CHANNELS 3 Xrotation Yrotation Zrotation
											End Site
											{
												OFFSET	-1.7745	-0.4876	-0.4071
											}
										}
									}
								}
								JOINT RFinger0
								{
									OFFSET	-2.1850	-1.6536	1.6563
									CHANNELS 3 Xrotation Yrotation Zrotation
									JOINT RFinger01
									{
										OFFSET	-4.0679	-1.3361	3.0671
										CHANNELS 3 Xrotation Yrotation Zrotation
										JOINT RFinger02
										{
											OFFSET	-2.6786	-0.9584	1.9299
											CHANNELS 3 Xrotation Yrotation Zrotation
											End Site
											{
												OFFSET	-1.9698	-0.6781	1.3488
											}
										}
									}
								}
							}
						}
					}
				}
			}
		}
	}
	JOINT RThigh
	{
		OFFSET	-10.9616	4.6318	-0.9035
		CHANNELS 3 Xrotation Yrotation Zrotation
		JOINT RShin
		{
			OFFSET	-0.8771	-47.6778	0.0000
			CHANNELS 3 Xrotation Yrotation Zrotation
			JOINT RFoot
			{
				OFFSET	0.0000	-46.8167	0.0000
				CHANNELS 3 Xrotation Yrotation Zrotation
				JOINT RToe
				{
					OFFSET	0.0000	-5.1456	10.7601
					CHANNELS 3 Xrotation Yrotation Zrotation
					End Site
					{
						OFFSET	0.0000	0.0000	7.2185
					}
				}
			}
		}
	}
	JOINT LThigh
	{
		OFFSET	10.9614	4.6322	-0.9035
		CHANNELS 3 Xrotation Yrotation Zrotation
		JOINT LShin
		{
			OFFSET	0.8772	-47.6781	0.0000
			CHANNELS 3 Xrotation Yrotation Zrotation
			JOINT LFoot
			{
				OFFSET	0.0000	-46.8167	0.0000
				CHANNELS 3 Xrotation Yrotation Zrotation
				JOINT LToe
				{
					OFFSET	0.0000	-5.1456	10.7601
					CHANNELS 3 Xrotation Yrotation Zrotation
					End Site
					{
						OFFSET	0.0000	0.0000	7.2185
					}
				}
			}
		}
	}
}
MOTION
Frames:	6
Frame Time: 0.0333333000
	10.6985	97.9179	-90.6138	-0.047191	26.773950	-4.341728	0.000000	0.000000	0.000000	0.098216	4.883100	-0.694427	0.572911	16.269520	-2.396959	0.000000	0.000000	0.000000	-15.045250	-14.620740	-7.312719	0.000000	0.000000	-16.434210	12.959970	-28.472420	-62.505520	11.958850	-16.768680	8.269343	0.000000	0.000000	0.000000	0.000000	0.000000	0.000000	0.000000	0.000000	0.000000	0.000000	0.000000	0.000000	0.000000	0.000000	0.000000	0.000000	0.000000	0.000000	0.000000	0.000000	0.000000	0.000000	0.000000	0.000000	0.000000	0.000000	0.000000	0.000000	0.000000	0.000000	0.000000	0.000000	0.000000	0.000000	0.000000	0.000000	0.000000	0.000000	0.000000	0.000000	0.000000	0.000000	0.000000	0.000000	0.000000	0.000000	0.000000	0.000000	0.000000	0.000000	-1.416214	-90.246120	61.276440	84.713460	0.000000	41.530990	0.000000	86.763020	-32.111710	19.205090	0.000000	0.000000	0.000000	0.000000	0.000000	0.000000	0.000000	0.000000	0.000000	0.000000	0.000000	0.000000	0.000000	0.000000	0.000000	0.000000	0.000000	0.000000	0.000000	0.000000	0.000000	0.000000	0.000000	0.000000	0.000000	0.000000	0.000000	0.000000	0.000000	0.000000	0.000000	0.000000	0.000000	0.000000	0.000000	0.000000	0.000000	0.000000	0.000000	0.000000	0.000000	0.000000	0.000000	0.000000	0.000000	-10.740800	-0.235815	1.438538	26.434750	0.000002	-0.000001	-0.626739	-0.256108	-0.126202	0.000000	0.000000	0.000000	-10.297100	0.000241	1.932789	9.358505	0.000001	0.000000	-0.839640	-0.147131	-0.077816	0.000000	0.000000	0.000000
	10.6464	98.1914	-90.3150	-0.851674	24.657790	-4.726980	0.000000	0.000000	0.000000	-0.000267	5.069974	-0.763128	0.271474	16.896520	-2.600256	0.000000	0.000000	0.000000	-10.163070	-8.987550	-5.109322	0.000000	0.000000	-16.522540	13.011450	-26.249960	-64.126850	11.958960	-16.770350	8.269711	0.000000	0.000000	0.000000	0.000000	0.000000	0.000000	0.000000	0.000000	0.000000	0.000000	0.000000	0.000000	0.000000	0.000000	0.000000	0.000000	0.000000	0.000000	0.000000	0.000000	0.000000	0.000000	0.000000	0.000000	0.000000	0.000000	0.000000	0.000000	0.000000	0.000000	0.000000	0.000000	0.000000	0.000000	0.000000	0.000000	0.000000	0.000000	0.000000	0.000000	0.000000	0.000000	0.000000	0.000000	0.000000	0.000000	0.000000	0.000000	0.000000	0.000000	-0.295106	-89.841580	66.793990	88.604490	0.000000	39.522510	0.000000	69.866510	-29.591050	12.133190	0.000000	0.000000	0.000000	0.000000	0.000000	0.000000	0.000000	0.000000	0.000000	0.000000	0.000000	0.000000	0.000000	0.000000	0.000000	0.000000	0.000000	0.000000	0.000000	0.000000	0.000000	0.000000	0.000000	0.000000	0.000000	0.000000	0.000000	0.000000	0.000000	0.000000	0.000000	0.000000	0.000000	0.000000	0.000000	0.000000	0.000000	0.000000	0.000000	0.000000	0.000000	0.000000	0.000000	0.000000	0.000000	-10.547700	-0.252971	2.193993	26.797820	0.000002	-0.000001	-0.538249	-0.407690	-0.198198	0.000000	0.000000	0.000000	-9.064860	-0.232070	2.750977	10.390140	0.000001	0.000000	-1.838588	0.585486	0.282326	0.000000	0.000000	0.000000
	10.5283	98.5755	-89.9193	-1.808804	23.187440	-5.313942	0.000000	0.000000	0.000000	-0.165194	5.436967	-0.859819	-0.232836	18.128650	-2.875978	0.000000	0.000000	0.000000	-6.545910	-7.225477	-3.298033	0.000000	0.000000	-16.595360	12.993820	-24.456540	-66.392970	12.063090	-18.318380	8.615125	0.000000	0.000000	0.000000	0.000000	0.000000	0.000000	0.000000	0.000000	0.000000	0.000000	0.000000	0.000000	0.000000	0.000000	0.000000	0.000000	0.000000	0.000000	0.000000	0.000000	0.000000	0.000000	0.000000	0.000000	0.000000	0.000000	0.000000	0.000000	0.000000	0.000000	0.000000	0.000000	0.000000	0.000000	0.000000	0.000000	0.000000	0.000000	0.000000	0.000000	0.000000	0.000000	0.000000	0.000000	0.000000	0.000000	0.000000	0.000000	0.000000	0.000000	1.304227	-83.061970	65.883250	88.380150	0.000000	39.477690	0.000000	69.893430	-30.957990	8.551032	0.000000	0.000000	0.000000	0.000000	0.000000	0.000000	0.000000	0.000000	0.000000	0.000000	0.000000	0.000000	0.000000	0.000000	0.000000	0.000000	0.000000	0.000000	0.000000	0.000000	0.000000	0.000000	0.000000	0.000000	0.000000	0.000000	0.000000	0.000000	0.000000	0.000000	0.000000	0.000000	0.000000	0.000000	0.000000	0.000000	0.000000	0.000000	0.000000	0.000000	0.000000	0.000000	0.000000	0.000000	0.000000	-9.741095	-0.332751	3.353973	26.673920	0.000002	-0.000001	-0.533703	-0.520362	-0.247986	0.000000	0.000000	0.000000	-6.993084	-0.382187	4.153399	9.408480	0.000001	0.000000	-1.906166	-0.016209	-0.012888	0.000000	0.000000	0.000000
	10.4140	98.8799	-89.5463	-2.733473	22.486470	-5.842450	0.000000	0.000000	0.000000	-0.281137	5.935412	-0.960428	-0.556880	19.796750	-3.183902	0.000000	0.000000	0.000000	-4.100988	-6.875973	-2.020232	0.000000	0.000000	-16.285650	14.990760	-23.806020	-67.313840	12.282240	-21.149990	9.263966	0.000000	0.000000	0.000000	0.000000	0.000000	0.000000	0.000000	0.000000	0.000000	0.000000	0.000000	0.000000	0.000000	0.000000	0.000000	0.000000	0.000000	0.000000	0.000000	0.000000	0.000000	0.000000	0.000000	0.000000	0.000000	0.000000	0.000000	0.000000	0.000000	0.000000	0.000000	0.000000	0.000000	0.000000	0.000000	0.000000	0.000000	0.000000	0.000000	0.000000	0.000000	0.000000	0.000000	0.000000	0.000000	0.000000	0.000000	0.000000	0.000000	0.000000	2.979940	-73.422730	58.697900	86.019980	0.000000	41.153120	0.000000	68.660390	-25.394760	7.457922	0.000000	0.000000	0.000000	0.000000	0.000000	0.000000	0.000000	0.000000	0.000000	0.000000	0.000000	0.000000	0.000000	0.000000	0.000000	0.000000	0.000000	0.000000	0.000000	0.000000	0.000000	0.000000	0.000000	0.000000	0.000000	0.000000	0.000000	0.000000	0.000000	0.000000	0.000000	0.000000	0.000000	0.000000	0.000000	0.000000	0.000000	0.000000	0.000000	0.000000	0.000000	0.000000	0.000000	0.000000	0.000000	-8.666222	-0.459055	4.469815	26.416560	0.000002	-0.000001	-0.237441	-0.315707	-0.143946	0.000000	0.000000	0.000000	-4.598803	-0.420329	5.467706	6.739307	0.000001	0.000000	-0.806373	-1.257631	-0.608671	0.000000	0.000000	0.000000
	10.2845	99.0728	-89.3455	-3.498104	20.629770	-6.299114	0.000000	0.000000	0.000000	-0.250987	6.369627	-1.085539	-0.367565	21.242140	-3.636220	0.000000	0.000000	0.000000	-2.835987	-5.345015	-0.999298	0.000000	0.000000	-15.143730	20.351900	-21.944810	-65.141370	12.444170	-22.972690	9.695027	0.000000	0.000000	0.000000	0.000000	0.000000	0.000000	0.000000	0.000000	0.000000	0.000000	0.000000	0.000000	0.000000	0.000000	0.000000	0.000000	0.000000	0.000000	0.000000	0.000000	0.000000	0.000000	0.000000	0.000000	0.000000	0.000000	0.000000	0.000000	0.000000	0.000000	0.000000	0.000000	0.000000	0.000000	0.000000	0.000000	0.000000	0.000000	0.000000	0.000000	0.000000	0.000000	0.000000	0.000000	0.000000	0.000000	0.000000	0.000000	0.000000	0.000000	4.175239	-68.349910	50.744740	86.767010	0.000000	43.229990	0.000000	74.668290	-21.535590	5.161027	0.000000	0.000000	0.000000	0.000000	0.000000	0.000000	0.000000	0.000000	0.000000	0.000000	0.000000	0.000000	0.000000	0.000000	0.000000	0.000000	0.000000	0.000000	0.000000	0.000000	0.000000	0.000000	0.000000	0.000000	0.000000	0.000000	0.000000	0.000000	0.000000	0.000000	0.000000	0.000000	0.000000	0.000000	0.000000	0.000000	0.000000	0.000000	0.000000	0.000000	0.000000	0.000000	0.000000	0.000000	0.000000	-8.249625	-0.771125	5.330802	26.947290	0.000002	-0.000001	0.760710	-0.268097	-0.125946	0.000000	0.000000	0.000000	-2.524315	-0.196857	6.399834	4.481765	0.000000	0.000000	0.223691	-1.497100	-0.707097	0.000000	0.000000	0.000000
	10.1562	99.1829	-89.2925	-4.055132	17.430900	-6.637411	0.000000	0.000000	0.000000	-0.152018	6.676839	-1.240260	0.074854	22.257830	-4.226079	0.000000	0.000000	0.000000	-2.524741	-2.775428	0.262929	0.000000	0.000000	-13.829700	24.969420	-17.582900	-62.464210	12.387340	-22.354500	9.547544	0.000000	0.000000	0.000000	0.000000	0.000000	0.000000	0.000000	0.000000	0.000000	0.000000	0.000000	0.000000	0.000000	0.000000	0.000000	0.000000	0.000000	0.000000	0.000000	0.000000	0.000000	0.000000	0.000000	0.000000	0.000000	0.000000	0.000000	0.000000	0.000000	0.000000	0.000000	0.000000	0.000000	0.000000	0.000000	0.000000	0.000000	0.000000	0.000000	0.000000	0.000000	0.000000	0.000000	0.000000	0.000000	0.000000	0.000000	0.000000	0.000000	0.000000	4.721971	-67.154750	47.016460	88.844280	0.000000	43.914890	0.000000	78.289340	-19.982730	3.144574	0.000000	0.000000	0.000000	0.000000	0.000000	0.000000	0.000000	0.000000	0.000000	0.000000	0.000000	0.000000	0.000000	0.000000	0.000000	0.000000	0.000000	0.000000	0.000000	0.000000	0.000000	0.000000	0.000000	0.000000	0.000000	0.000000	0.000000	0.000000	0.000000	0.000000	0.000000	0.000000	0.000000	0.000000	0.000000	0.000000	0.000000	0.000000	0.000000	0.000000	0.000000	0.000000	0.000000	0.000000	0.000000	-8.629383	-1.361282	5.855265	28.393130	0.000003	-0.000001	1.489906	-0.370511	-0.178376	0.000000	0.000000	0.000000	-0.822351	0.096043	7.013503	3.186231	0.000000	0.000000	0.342959	-0.990259	-0.466399	0.000000	0.000000	0.000000
